Coordinates
version=1
nRows=13
nColumns=38
inDegrees=yes

Units are S.I. units (second, meters, Newtons, ...)
Angles are in degrees.

endheader
time	pelvis_tilt	pelvis_list	pelvis_rotation	pelvis_tx	pelvis_ty	pelvis_tz	hip_flexion_r	hip_adduction_r	hip_rotation_r	knee_angle_r	ankle_angle_r	subtalar_angle_r	mtp_angle_r	hip_flexion_l	hip_adduction_l	hip_rotation_l	knee_angle_l	ankle_angle_l	subtalar_angle_l	mtp_angle_l	lumbar_extension	lumbar_bending	lumbar_rotation	arm_flex_r	arm_add_r	arm_rot_r	elbow_flex_r	pro_sup_r	wrist_flex_r	wrist_dev_r	arm_flex_l	arm_add_l	arm_rot_l	elbow_flex_l	pro_sup_l	wrist_flex_l	wrist_dev_l
      1.78000000	      0.26356286	      2.27457958	      1.60286312	     -0.10670757	      0.89789159	     -0.23772148	     27.65267866	     -1.33084447	     -9.21002185	    -16.73220251	     -0.90956672	     -1.23540010	      9.90275264	    -15.75675921	      3.86440032	      6.72619832	    -18.79972791	     10.87016930	      7.41964450	     14.19647217	     -5.99213535	     -0.01392804	     -9.71130583	     -6.94907656	    -15.33093855	     15.96508980	      7.65035305	     86.51662706	      0.00000000	      0.00000000	      5.87504616	    -19.79766887	     14.85161074	     40.93242902	     86.51662706	      0.00000000	      0.00000000
      1.79000000	      0.17186313	      1.93934399	      1.49369634	     -0.09158881	      0.89662528	     -0.23597624	     27.63180966	     -0.78535896	     -8.89024977	    -17.95973516	     -2.42801851	     -2.92085476	      9.79023269	    -15.71482347	      3.37252766	      6.12052740	    -20.29258371	      9.46561963	      7.99033120	     16.76910541	     -5.59058104	      0.42059621	     -9.58087395	     -6.98321835	    -15.39128350	     16.55355548	      7.68035675	     86.51662706	      0.00000000	      0.00000000	      5.25427105	    -19.54586676	     14.57276143	     40.92262259	     86.51662706	      0.00000000	      0.00000000
      1.80000000	      0.06214741	      1.49445356	      1.34138288	     -0.07648173	      0.89569372	     -0.23409674	     27.65070077	     -0.12842206	     -8.55815735	    -19.12972211	     -4.04517938	     -4.41286871	      9.62573709	    -15.49410870	      2.77061410	      5.39576423	    -21.98663223	      7.67846889	      8.53682697	     19.46440955	     -5.15631680	      0.98338519	     -9.37963748	     -7.01343330	    -15.48293361	     17.05849777	      7.76779375	     86.51662706	      0.00000000	      0.00000000	      4.62113722	    -19.24232981	     14.34259617	     40.78151990	     86.51662706	      0.00000000	      0.00000000
      1.81000000	     -0.05665235	      0.93587541	      1.15428376	     -0.06146715	      0.89524149	     -0.23214460	     27.68826712	      0.63351739	     -8.19781446	    -20.30131363	     -5.59515426	     -5.66534339	      9.41180308	    -15.08607968	      2.05995085	      4.58477606	    -23.89998958	      5.46030687	      9.03379522	     22.15459201	     -4.71530132	      1.67268326	     -9.11762120	     -7.02506134	    -15.60444134	     17.46117150	      7.90825680	     86.51662706	      0.00000000	      0.00000000	      3.99197851	    -18.89017709	     14.16303279	     40.50047936	     86.51662706	      0.00000000	      0.00000000
      1.82000000	     -0.17300920	      0.27885646	      0.94360103	     -0.04653003	      0.89524638	     -0.23020339	     27.71125634	      1.48986880	     -7.79879828	    -21.51343905	     -6.91061502	     -6.66517241	      9.15313125	    -14.48901419	      1.25339120	      3.73575817	    -26.04157954	      2.79606052	      9.46185429	     24.69413323	     -4.29208569	      2.46779560	     -8.81040424	     -7.00589699	    -15.75210428	     17.74850067	      8.09895604	     86.51662706	      0.00000000	      0.00000000	      3.37937354	    -18.49801217	     14.03685035	     40.07650185	     86.51662706	      0.00000000	      0.00000000
      1.83000000	     -0.27201568	     -0.44509652	      0.71920835	     -0.03161977	      0.89553785	     -0.22829628	     27.68625415	      2.42316258	     -7.36546252	    -22.75676834	     -7.85221282	     -7.42419578	      8.85367560	    -13.70900725	      0.37146643	      2.90869915	    -28.40809342	     -0.27848651	      9.80846954	     26.93443047	     -3.90887851	      3.33248346	     -8.47542851	     -6.94698040	    -15.91986932	     17.91396541	      8.33920414	     86.51662706	      0.00000000	      0.00000000	      2.79369257	    -18.07915393	     13.96899882	     39.51150830	     86.51662706	      0.00000000	      0.00000000
      1.84000000	     -0.34417884	     -1.19688545	      0.48936511	     -0.01679575	      0.89592030	     -0.22638363	     27.57967770	      3.40819437	     -6.91798410	    -23.97749281	     -8.33139055	     -7.96876420	      8.51521123	    -12.75811930	     -0.56117861	      2.16922961	    -30.98381939	     -3.66517875	     10.06626334	     28.74104881	     -3.58529667	      4.22383632	     -8.12897014	     -6.84251068	    -16.09992285	     17.95809631	      8.63020072	     86.51662706	      0.00000000	      0.00000000	      2.24519573	    -17.64911711	     13.96769583	     38.81070816	     86.51662706	      0.00000000	      0.00000000
      1.85000000	     -0.38956681	     -1.94082528	      0.26505514	     -0.00222463	      0.89630163	     -0.22443144	     27.35698881	      4.41373805	     -6.48606062	    -25.10132722	     -8.32199084	     -8.32947260	      8.13751144	    -11.65083415	     -1.51629389	      1.57979474	    -33.74349955	     -7.20278846	     10.22960601	     30.01112893	     -3.33770102	      5.10275456	     -7.78473425	     -6.68944153	    -16.28398752	     17.88853841	      8.97419248	     86.51662706	      0.00000000	      0.00000000	      1.74558847	    -17.22207334	     14.04500464	     37.98056033	     86.51662706	      0.00000000	      0.00000000
      1.86000000	     -0.41129874	     -2.65341047	      0.06438723	      0.01196438	      0.89671898	     -0.22245866	     26.98786237	      5.40455154	     -6.10036149	    -26.05906500	     -7.85869470	     -8.53342837	      7.71977035	    -10.40036925	     -2.46065353	      1.18951458	    -36.65635123	    -10.68010992	     10.29116462	     30.68797590	     -3.17777369	      5.94123190	     -7.45402192	     -6.48716116	    -16.46492664	     17.71962293	      9.37326142	     86.51662706	      0.00000000	      0.00000000	      1.30823883	    -16.80777852	     14.21665756	     37.02695229	     86.51662706	      0.00000000	      0.00000000
      1.87000000	     -0.40800454	     -3.32401042	     -0.08775096	      0.02576369	      0.89726582	     -0.22052814	     26.45196425	      6.34345248	     -5.78695980	    -26.80351186	     -7.02368837	     -8.60043298	      7.26265535	     -9.01652962	     -3.35657331	      1.02568281	    -39.68836736	    -13.86258291	     10.24023552	     30.76987190	     -3.11093646	      6.72357830	     -7.14656321	     -6.23718798	    -16.63804795	     17.47138160	      9.82810065	     86.51662706	      0.00000000	      0.00000000	      0.94692244	    -16.41037239	     14.50100260	     35.95415729	     86.51662706	      0.00000000	      0.00000000
      1.88000000	     -0.37353288	     -3.94664292	     -0.16500150	      0.03924485	      0.89802039	     -0.21872508	     25.74147650	      7.19474652	     -5.56613926	    -27.31512182	     -5.92611206	     -8.54292017	      6.77023893	     -7.50674599	     -4.16606852	      1.09008494	    -42.80134289	    -16.52823581	     10.06403349	     30.31092491	     -3.13556987	      7.44206324	     -6.87090702	     -5.94262785	    -16.80160499	     17.16799368	     10.33713171	     86.51662706	      0.00000000	      0.00000000	      0.67357996	    -16.02945466	     14.91708426	     34.76490068	     86.51662706	      0.00000000	      0.00000000
      1.89000000	     -0.30220896	     -4.51039175	     -0.14672088	      0.05247785	      0.89903139	     -0.21714927	     24.86165646	      7.92835153	     -5.45343595	    -27.59785166	     -4.68024089	     -8.36841621	      6.25112460	     -5.87965151	     -4.85606571	      1.36144811	    -45.94929199	    -18.50536442	      9.75180777	     29.41326187	     -3.24350735	      8.09008404	     -6.63374844	     -5.60739719	    -16.95632095	     16.83576288	     10.89617928	     86.51662706	      0.00000000	      0.00000000	      0.49586441	    -15.66266061	     15.48202895	     33.46154080	     86.51662706	      0.00000000	      0.00000000
      1.90000000	     -0.19346201	     -4.99722539	     -0.02375271	      0.06549041	      0.90032147	     -0.21588184	     23.82996045	      8.52284807	     -5.46017793	    -27.67016624	     -3.38751267	     -8.08298873	      5.71839573	     -4.14770019	     -5.40059094	      1.80260564	    -49.07439451	    -19.70274462	      9.30028220	     28.21183340	     -3.42150943	      8.65677812	     -6.43837118	     -5.23553741	    -17.10418299	     16.50083540	     11.49872735	     86.51662706	      0.00000000	      0.00000000	      0.41516346	    -15.30841675	     16.20808723	     32.04804685	     86.51662706	      0.00000000	      0.00000000
